<svg xmlns="http://www.w3.org/2000/svg" viewBox="0 0 300 400" preserveAspectRatio="xMidYMid slice">
  <rect width="300" height="400" fill="#dcd5c8"/>
  <g fill="none" stroke="#4f1d34" stroke-width="1.2" stroke-linecap="round" stroke-linejoin="round" opacity="0.55">
    <!-- Jacket silhouette -->
    <path d="M90 120 L120 100 L150 110 L180 100 L210 120 L220 180 L215 320 L85 320 L80 180 Z"/>
    <path d="M150 110 L150 200"/>
    <path d="M120 100 L110 150 L130 200"/>
    <path d="M180 100 L190 150 L170 200"/>
    <path d="M85 180 L60 220 L70 320 L85 320"/>
    <path d="M215 180 L240 220 L230 320 L215 320"/>
    <circle cx="150" cy="150" r="1.5" fill="#4f1d34"/>
    <circle cx="150" cy="180" r="1.5" fill="#4f1d34"/>
    <circle cx="150" cy="210" r="1.5" fill="#4f1d34"/>
  </g>
  <text x="150" y="370" font-family="Playfair Display, serif" font-style="italic" font-size="11" fill="#4f1d34" opacity="0.5" text-anchor="middle" letter-spacing="1">Casa Chevalier</text>
</svg>
