<svg xmlns="http://www.w3.org/2000/svg" viewBox="0 0 300 400" preserveAspectRatio="xMidYMid slice">
  <rect width="300" height="400" fill="#dcd5c8"/>
  <g fill="none" stroke="#4f1d34" stroke-width="1.2" stroke-linecap="round" stroke-linejoin="round" opacity="0.55">
    <!-- Riding pants / bombacha silhouette -->
    <path d="M115 100 L185 100 L195 130 L200 200 L190 340 L160 340 L150 210 L140 340 L110 340 L100 200 L105 130 Z"/>
    <!-- Waistband -->
    <path d="M115 100 L185 100"/>
    <path d="M115 115 L185 115"/>
    <!-- Center seam -->
    <path d="M150 115 L150 210"/>
    <!-- Belt loops -->
    <path d="M125 100 L125 115"/>
    <path d="M150 100 L150 115"/>
    <path d="M175 100 L175 115"/>
    <!-- Curved bombacha flare -->
    <path d="M105 180 L95 220 L100 260 L110 300"/>
    <path d="M195 180 L205 220 L200 260 L190 300"/>
  </g>
  <text x="150" y="370" font-family="Playfair Display, serif" font-style="italic" font-size="11" fill="#4f1d34" opacity="0.5" text-anchor="middle" letter-spacing="1">Casa Chevalier</text>
</svg>
